<?xml version="1.0" encoding="UTF-8"?>
<!DOCTYPE svg PUBLIC "-//W3C//DTD SVG 1.1//EN" "http://www.w3.org/Graphics/SVG/1.1/DTD/svg11.dtd">
<!-- Creator: CorelDRAW -->
<svg xmlns="http://www.w3.org/2000/svg" xml:space="preserve" width="146.838mm" height="236.129mm" version="1.1" style="shape-rendering:geometricPrecision; text-rendering:geometricPrecision; image-rendering:optimizeQuality; fill-rule:evenodd; clip-rule:evenodd"
viewBox="0 0 14669.49 23590.01"
 xmlns:xlink="http://www.w3.org/1999/xlink"
 xmlns:xodm="http://www.corel.com/coreldraw/odm/2003">
 <defs>
  <style type="text/css">
   <![CDATA[
    .fil2 {fill:#019FE0}
    .fil0 {fill:#040404}
    .fil8 {fill:#059639}
    .fil7 {fill:#6CB7E3}
    .fil9 {fill:#D40912}
    .fil4 {fill:#E4007D}
    .fil3 {fill:#F08D02}
    .fil5 {fill:#F3B4D3}
    .fil6 {fill:#FBCA12}
    .fil1 {fill:white}
   ]]>
  </style>
 </defs>
 <g id="Layer_x0020_1">
  <metadata id="CorelCorpID_0Corel-Layer"/>
  <g id="_2252514896256">
   <path class="fil0" d="M6672.18 22789.36c376.16,-375.76 990.36,-687.6 1384.46,-1056.06 376.33,-351.84 363.36,-462.39 749.02,-329.82 375.68,129.15 613.01,134.47 714.74,520.7 179.4,681.14 -560.48,1180.14 -1049.56,1349.95 -661.35,229.62 -1529.49,-58.29 -1798.66,-484.77zm-2285.71 -2224.42l1233.74 458.35c-24.88,120.3 -141.48,582.37 -208.8,635.24 -0.69,0.54 -1122.9,340.99 -1194.03,-419.72 -34.13,-364.89 76.79,-436.02 169.09,-673.88zm4379.62 572.99c127.63,-370.89 589.27,-794.77 833.54,-1278.22 89.05,-176.25 131.27,-373.69 202.89,-524.75 970.73,-232.45 896.82,1032.01 631.14,1536.13 -398.52,756.2 -926.65,606.24 -1667.57,266.84zm-3323.31 -408.57l-514.32 -190.12c-147.6,-38.29 -325.47,-90.46 -436.87,-180.19 -25.29,-450.87 15.83,-658.31 373.98,-793.86 672.83,-254.66 1363.89,194.94 1288.87,934.17 -44.95,442.76 -452.54,456.24 -711.66,230zm946.4 -1377.12c83.68,-155.4 340.76,-258.16 497.55,-336.87 148.4,-74.49 431.53,-212.69 607.71,-243.24 48.93,325.72 18.6,515.14 -269.06,617.06 -360.78,127.84 -516.92,6.73 -836.2,-36.94zm3155.1 -30.6c-20.97,1127.24 -2965.25,3810.6 -4123.45,3491.04 -277.51,-76.57 -348.75,-522.98 -233.22,-810.19 251.06,-206.76 422.42,-68.52 525.99,-497.89 106.93,-443.29 187.03,-359.89 410.64,-610.91 165.91,-186.24 277.08,-461.35 181.75,-794.21 -98.09,-342.54 -275.24,-431.25 -390.14,-649.64 296.84,-116.17 1213,446.85 1693.98,-134.4 201.59,-243.62 73.62,-349.57 25.61,-592.32 -91.5,-462.65 753.9,107.89 862.86,168.79 314.22,175.65 719.51,288.58 1045.98,429.73zm-1554.28 -970.23l101.42 -103.91c56.81,-38.61 82.25,-47.2 144.37,-69.96 91.36,126.79 206.74,198.22 227.75,439.07 -193.22,-40.07 -353.45,-151.56 -473.54,-265.2zm564.95 -704.44c-12.64,-339.61 463.64,-504.81 725,-308.95 184.58,138.32 344.8,572.1 252.84,910.5 -74.31,273.41 -415.39,564.04 -740.17,386.34 -218.18,-119.36 -226.51,-688.28 -237.67,-987.89zm637.69 -803.41l305.81 -9.08 -115.25 281.48 -203.45 -33.95 12.89 -238.45zm-151.34 -289.37c-77.07,-75.26 -81.31,-163.99 -87.22,-317.37 -7.85,-203.96 -5.6,-193.08 157.67,-228.97 6.62,14.81 21.04,31.78 27.95,87.87 1.43,11.55 0.44,47.62 0.12,59.83 -3.31,124.28 -35.59,306.09 -98.52,398.63zm-319.24 -1239.26c209.2,-114.3 259.09,-196.46 571.52,-286.52 -13.8,165.09 -39.5,348.23 -63.23,511.99 -32.9,227.09 -94.74,188.09 -329.95,252.3 -77.21,-106.16 -141.58,-320.28 -178.35,-477.78zm-2852.25 -1389.47c-49.73,115.74 -55.15,113.66 1.84,226.87 181.01,-224.85 400.13,-738.02 783.16,-602.1 196.39,69.68 281.11,229.08 219.31,488.09 -46.75,195.93 -216.57,257.77 -372.19,324.62 -71.49,82.12 -138.52,162.68 -237.24,241.6l39.76 14.96c444.81,-83.23 1012.43,-132.49 801.07,492.85 -150.63,445.7 -697.93,83.59 -911.18,-31.29l37.41 224.17c65.89,143.73 165.01,315.76 52.25,499.48 -65.85,107.3 -245.16,224.81 -441.77,186.82 -370.27,-71.57 -319.81,-544.79 -286.5,-889.07 -125.78,74.16 -123.23,44.72 -186.73,152.11 -69.77,178.03 -166.88,308.68 -383.76,346.89 -538.94,94.95 -632.77,-495.39 -263.76,-724.82 181.42,-112.8 308.99,-117.18 515.48,-189.44l-31.55 -105.63 -150.26 -34.12c-658.99,260.09 -968.85,-375.48 -710.46,-610.53 351.02,-319.33 881.03,87.22 1000.01,357.04l154.8 -33.36 -60.02 -151.93c-241.75,-153.39 -579.61,-674.9 -190.01,-887.26 533.6,-290.85 684.7,258.66 620.35,704.03zm91.29 -796.79c255.91,-166.14 453.97,-481.45 805.74,-146.06 548.96,523.39 550.67,1171.49 949.44,1586.47 192.64,200.48 512.01,341.95 603.08,697.32 -169.78,69.22 -293.98,147.7 -314.59,408.83 332.51,-24.2 268.45,-133.01 468.22,-202.81 63.74,138.4 130.83,281.68 162.81,471.71 -129.96,34.07 -161.55,69.07 -222.22,188.29 259.8,210.66 279.11,-210.67 300.26,548.75l-258.93 89.99c90.44,110.04 131.17,93.03 215.19,171.36 -78.37,256.18 -178.83,255.17 -340.5,592.25 -284.98,594.17 -951.21,976.16 -1536.74,1280.26 -1044.21,542.29 -922.32,373.82 -1798.68,527.34 -184.37,32.31 -218.54,90.38 -357.13,135.44 -193.2,62.82 -659.16,3.93 -891.57,0.12l71.42 -282.85c-221.35,21.49 -237.95,185.69 -370.93,185.11 -53.31,-0.23 -348.95,-149.59 -412.66,-195.9 75.36,-186.98 109.69,-112.05 170.66,-288.62l-426.29 89.66c-84.91,-150.59 -145.2,-205.98 -229.92,-387.39 7.06,-6.03 18.45,-23.75 22.17,-16.92l164.49 -93.43c53,-32.04 108.68,-71.52 89.64,-160.21 -250.76,-24.29 -562,127.4 -685.64,-507.15 -189.68,-973.4 137.58,-1137.85 -170.56,-1239.48 -119.81,-39.51 -213.04,15.55 -345.86,-213.94 -95.59,-165.16 -167.48,-374.19 -180.71,-590.86 -33.38,-546.25 484.03,-545.96 959.92,-581.97 1054.35,-79.79 1215.64,-626 1648.9,-675.09 142.02,-16.09 412.57,198.57 484.12,275.1 -115.02,314.1 -343.25,498.72 -28.28,802.18 287.95,277.44 494.14,122.88 845.37,32.72 80.61,284.54 250.66,542.84 626.5,521.71 426.83,-24.01 467.06,-303.31 489.49,-694.24 421.08,35.91 680.3,52.26 791.25,-331.29 146.3,-505.74 -157.97,-521.23 -391.61,-718.52 108.88,-313.11 364.76,-523.56 63.52,-847.73 -323.6,-348.23 -508.4,-138.77 -877.78,-3.89l-91.58 -426.28zm1334.16 -2638.05l-27.38 319.75 372.19 -0.77c104.37,629.52 150.7,1294.74 255.29,1922.32 95.86,575.13 283.04,1312.83 297.1,1879.67 -532.53,-219.6 -686.53,-1160.61 -842.27,-1859.92 -119.48,-536.53 -392.42,-1749.58 -367.94,-2278.91l313.02 17.85zm2250.04 5324.81c-69.02,-106.27 -130.42,-150.54 -132.1,-350.17 -3.09,-368.12 300.12,-2319.73 357.3,-2766.27 130.02,-1015.34 234.81,-2115.3 391.45,-3117.12 142.31,56.85 333.47,237.05 475.37,340.53 191.15,139.41 222.3,140.74 410.14,224l127.26 71.5 -116.79 254.07 368.45 130.62c40.87,698.18 -556.22,2478.91 -773.41,3126.71 -160.48,478.66 -332.09,956.45 -504.81,1432.16 -167.87,462.37 -380.85,965.18 -518.25,1423.78l-382.88 2.41c-36.95,-724.11 171.59,-688.63 298.26,-772.22zm-1422.24 -5424.16c178.48,-88.25 356.65,-122.22 546.19,-230.57 582.85,-333.15 763.31,-685.37 1040.53,-1169.46 410.83,188.9 271.41,823.25 198.88,1315.94 -73.72,500.84 -122.23,1009.51 -186.67,1504.04 -126.7,972.35 -288.32,2044.15 -366.62,3016.6 -314.66,41.23 -558.82,239.95 -807.19,234.19 -289.63,-325.27 -759.37,-3645.62 -749.62,-4297.74l435.6 -61.83 -111.09 -311.17zm-3975.63 -1866.76c130.39,-141.65 221.25,-185.09 344.17,-323.72 114.4,-129.01 185.59,-302.42 299.52,-327.77 498.63,2888.44 1894.86,1971.38 2030.47,2768.26l376.67 2456.33c-164.34,-171.67 -376.19,-549.02 -665.68,-577.58 -338.3,-33.38 -506.07,331.32 -759.73,429.01 -254.62,-375.77 -1725.94,-3559.16 -1730.6,-4008.51l263.59 -142.77 -158.41 -273.25zm7296.4 1549.75c-141.11,-77.38 -332.85,-83.32 -488.49,-153.35 -981.48,-441.63 -1583.39,-1636.25 -1267.47,-2898.22 516.3,-2062.39 3082.46,-2716.05 4374.53,-946.79 1016.94,1392.54 283.13,3433.25 -1261.37,3954.28 -681.5,229.9 -647.35,52.22 -1033.55,53.47l37.83 358.62c-172.63,27.59 -333.67,1.41 -463.15,-86.23 29.49,-172.95 77.42,-89.46 101.66,-281.78zm-4412.47 227.36c-260.83,-37.39 -560.74,-65.11 -704.13,-227.91 -295.89,-120.97 -718.67,-473.24 -894.1,-687.84 -559.14,-684.04 -683.84,-1630.49 -393.22,-2466.42 109.5,-314.97 390.77,-821.14 596.54,-957.38 109.11,-166.49 381.17,-378.62 620.93,-461.77 874.79,-505.41 2232.31,-261.21 2919.41,599.11 309.12,387.05 460.56,559.73 362.58,914.36 -107.29,388.28 -112.7,828.19 -44.08,1234.15 104.49,618.14 246.74,427.79 -88.1,959.99 -332.77,528.91 -758.62,932.33 -1571.71,1077.97 40.92,156.26 110.91,165.46 127.26,296.63l-492.28 46.41 88.13 -375.06c-252.1,57.2 -231.02,80.02 -527.23,47.75zm-2249.49 -2941.74l-175.74 379.12c-79.14,272.12 -241.34,398.21 -425.23,536.2 -45.72,146.51 -111.59,167.04 -310.51,185.98 -2.61,193.78 54.15,97.12 111.12,274.66 -68.64,96.31 -230.79,220.12 -416.79,191.26l-37.13 -236.87c-7.8,-2.17 -19.58,-2.44 -24.21,-2.22 -4.5,0.22 -18.14,-1.29 -23.64,-0.68 -172.47,19.28 -137.15,176.39 -884.43,167.3 -332.4,-4.05 -667.19,-65.62 -875.27,-247.77 -180.22,-12 -333.96,-117.12 -423.62,-222.88 -430.26,-175.44 -933.36,-863.71 -1061.74,-1478.36l-75.63 -409.04c-154.43,-509.56 186.63,-1415.62 405.77,-1729.96 278.08,-398.88 719.01,-828.99 1374.82,-863.51 105.53,-121.39 167.77,-98.93 342.72,-96.45 158.36,-66.17 716.46,-55.33 893.67,18.7 52.36,21.87 44.41,21.83 66.57,41.17l409.07 146.33c288.47,79.15 586.49,298.74 738.67,462.81l547.05 645.32c175.78,-168.89 1061.69,135.25 1285.2,192.79 -102.15,127.88 -382.09,232.08 -543.54,376.83 -143.69,128.82 -300.73,339.1 -474.71,450.16 -19.52,-427.43 -117.51,-638.52 -249.45,-971.29 -22.38,38.96 -16.94,11.66 -26.89,85.37l29.08 201.32c91.84,317.73 137.14,527.5 109.16,886.2 -19.52,250.43 -175.15,849.16 -284.38,1017.49zm1237.68 -2474.39c-914.12,179.16 -1048.54,65.27 -1658.13,-521.73 -509.37,-490.49 -898.59,-442.95 -1013.39,-1304.84 -207.82,-1560.29 449.06,-2481.79 1707.1,-2816.87 1110.7,-295.84 2508.52,458.37 2807.19,1712.85 159.56,670.2 5.14,1431.28 -303.16,1917.34 -595.94,939.56 -1173.08,901.74 -1311.12,989.76l118.35 249.6 -381.85 57.11 34.99 -283.2zm6760.97 -3901.62c-8.84,185.45 167.14,435.01 236.27,639.36 234.76,693.84 113.2,1562.89 -219.25,2168.64 -210.92,384.32 -500.49,697.39 -861.26,900.38 -710.55,399.81 -996.57,221.45 -1400.65,244.59l-13.52 286.12c-600.25,55.96 -391.26,-121.53 -354.57,-326.31 -271.72,-168.37 -448.55,-61.93 -921.64,-520.95 -1560.06,-1513.68 -562.72,-4077.64 1449.7,-4230.86 1408.8,-107.27 1796.38,762.08 2049.65,802.26 -130.69,-230.19 -527.86,-553.52 -819.82,-696.16 -361.66,-176.68 -761.72,-273.66 -1228.29,-246.44 -906.32,52.88 -1539.08,538.4 -1888.42,1067.05 -659.48,997.95 -652.35,2405.31 235.74,3328.72 465.67,484.18 556.32,384.12 885.15,602.05 -43.68,117.94 -79.55,144.51 -88.38,290.99 176.87,39.69 347.13,60.45 497.87,130.13 9.43,224.93 -192.53,408.46 -303.19,573.04 -74.52,110.84 -279.52,413.05 -360.6,481.96 -271.66,-143.78 -274.12,-675.14 -1213.93,-1143.21 -1090.29,-543.02 -1436.09,-20.4 -1888.18,-282.48 30.27,-202.61 225.26,-235.83 539.2,-464.92 2054.13,-1498.98 640.76,-5129.34 -2081.86,-4512.83 -237.72,53.83 -526.97,172.19 -707.21,280.12 -634.07,379.69 -1006.77,934.28 -1161.83,1726.94 -143.06,731.3 105.1,1017.69 222.07,1631.84 -518.67,-36.62 -925.11,-165.16 -1460.53,-51.84 -2266.56,479.69 -2463.97,3580.73 -937.15,4710.81 851.15,629.99 1098.65,637.79 2384.56,557.52l24.18 60.15c3.29,9.42 7.23,19.68 10.57,29.92l35.7 139.75c176.43,-5.54 262.72,-65.96 422.06,-100.06l1681.11 3902.28c-342.33,292.34 -583.96,-89.03 -613.85,728.17 -575.62,-34.48 -607.06,-102.02 -818.84,365.26 -113.32,250.02 -292.36,220.59 -710.41,487.12 -1011.21,644.7 -1157.62,238.68 -1865.35,529.52 -688,282.74 -251.6,1274.75 38.43,1658.62 300.43,397.63 202.22,367.97 275.48,914.81 44.66,333.41 187.48,578.7 248.31,918.73 -231.7,101.38 -480.96,249.39 -550.72,498.84 330.3,-0.68 393.93,-239.38 731.44,-306.56 104.71,95.06 261.41,294.95 315.89,450.94 -136.37,106.48 -239.52,200.13 -234.41,434.29 469.69,-237.47 398.17,-405.91 884.47,-22.8 -68.53,277.79 -241.67,288.01 -265.68,675.21 209.01,-66.41 424.58,-358.03 487.17,-581.83l819.42 80.07c22.02,1019.67 -354.99,790.3 -296.76,1434.37 52.19,577.29 382.85,724.98 969.76,754.84 1.82,848.34 104.09,1259.99 1070.07,1000.71 479.32,-128.64 421.07,-47.24 737.72,179.86 1348.58,967.21 3158.48,215.42 2934,-1477.28 370.47,-101 676.62,-260.32 850.81,-556.39 363.72,-618.16 432.92,-1784.46 -249.77,-2029.65 -449.91,-161.58 -661.03,173.63 -1137.52,-160.09 238.45,-282.16 550.28,-239.43 573.58,-799.23 19.72,-473.53 -257.41,-743.07 -125.54,-1156.24 218.78,-685.44 530.79,-1327.3 774.96,-2006.13 403.23,-1121.06 1020.7,-3189.96 1210.76,-4348.92l413.79 20.83 -44.63 -334.02c867.81,-62.21 1507.58,-362.08 1933.04,-807 402.67,-421.09 761.93,-1100.71 769.66,-1934.11 5.46,-589.5 -150.5,-1145.87 -472.28,-1599.62 -118.79,-167.52 -171.71,-205.97 -311.03,-357.44 -151.86,-165.12 -550.49,-411.86 -855.29,-520.14 -366.91,-130.35 -740.37,-166.26 -1164.33,-179.43 228.14,-247.37 966.35,-457.23 1309.36,-1590.43 229.9,-759.49 47.79,-1950.48 -395.26,-2343.42z"/>
   <path class="fil1" d="M3793.83 17822.53c294.28,-200.47 600.99,414.47 325.05,577.41 -315.62,186.38 -614.89,-379.97 -325.05,-577.41zm1773.98 302.11c-226.66,-489.08 230.55,-782.33 587.59,-550.21 143.16,93.07 135.38,352.39 -19.61,477.69 -144.77,117.04 -352.38,117.33 -567.98,72.52zm1825.16 -1287.48c-271.67,16.11 -432.37,-11.9 -464.62,-286.1 -38.86,-330.54 99.83,-337.67 390.96,-315.08 124.66,281.51 188.31,230.11 73.66,601.19zm1320.88 -155.97c-21.15,-759.41 -40.46,-338.09 -300.26,-548.75 60.67,-119.21 92.26,-154.22 222.22,-188.29 -31.98,-190.04 -99.07,-333.32 -162.81,-471.71 -199.78,69.8 -135.72,178.62 -468.22,202.81 20.61,-261.14 144.81,-339.61 314.59,-408.83 -91.07,-355.37 -410.44,-496.85 -603.08,-697.32 -398.76,-414.98 -400.48,-1063.08 -949.44,-1586.47 -351.77,-335.39 -549.83,-20.08 -805.74,146.06l91.58 426.28c369.38,-134.88 554.18,-344.35 877.78,3.89 301.24,324.16 45.37,534.62 -63.52,847.73 233.64,197.29 537.91,212.78 391.61,718.52 -110.95,383.55 -370.17,367.19 -791.25,331.29 -22.44,390.93 -62.67,670.23 -489.49,694.24 -375.84,21.13 -545.89,-237.17 -626.5,-521.71 -351.23,90.16 -557.42,244.72 -845.37,-32.72 -314.96,-303.47 -86.74,-488.08 28.28,-802.18 -71.55,-76.54 -342.1,-291.2 -484.12,-275.1 -433.26,49.09 -594.55,595.3 -1648.9,675.09 -475.89,36.01 -993.29,35.73 -959.92,581.97 13.24,216.67 85.13,425.7 180.71,590.86 132.82,229.5 226.05,174.43 345.86,213.94 308.14,101.62 -19.11,266.07 170.56,1239.48 123.64,634.54 434.89,482.86 685.64,507.15 19.04,88.69 -36.64,128.18 -89.64,160.21l-164.49 93.43c-3.72,-6.82 -15.11,10.89 -22.17,16.92 84.72,181.41 145.01,236.8 229.92,387.39l426.29 -89.66c-60.97,176.57 -95.31,101.64 -170.66,288.62 63.71,46.3 359.35,195.67 412.66,195.9 132.98,0.58 149.57,-163.62 370.93,-185.11l-71.42 282.85c232.41,3.81 698.37,62.7 891.57,-0.12 138.6,-45.06 172.76,-103.13 357.13,-135.44 876.36,-153.52 754.48,14.96 1798.68,-527.34 585.53,-304.09 1251.75,-686.08 1536.74,-1280.26 161.67,-337.08 262.13,-336.07 340.5,-592.25 -84.02,-78.33 -124.75,-61.32 -215.19,-171.36l258.93 -89.99z"/>
   <path class="fil2" d="M12780.53 983.9c3.69,-54.47 17.18,-44.03 -35.27,-36.76 -253.26,-40.18 -640.85,-909.53 -2049.65,-802.26 -2012.42,153.22 -3009.77,2717.18 -1449.7,4230.86 473.09,459.02 649.93,352.59 921.64,520.95 -36.69,204.78 -245.68,382.27 354.57,326.31l13.52 -286.12c404.08,-23.14 690.1,155.22 1400.65,-244.59 360.77,-202.99 650.35,-516.07 861.26,-900.38 332.45,-605.75 454.01,-1474.81 219.25,-2168.64 -69.13,-204.35 -245.11,-453.91 -236.27,-639.36z"/>
   <path class="fil3" d="M11974.72 9133.27c363.41,6.33 211.91,49.33 412.74,-147.67 188.42,221.08 9.23,218.49 359.52,341.22l-195.2 135.92c-68.46,64.8 -68.15,169.15 -86.22,268.77 -196.03,-71.28 -185.34,-128.75 -470.36,-103.12 58.04,-367.05 41.97,-162.85 -20.48,-495.12zm-1424.3 -506.38c478.04,13.65 217.07,-43.24 463.35,-157.78 53.19,100.71 13.64,177.33 77,260.47 42.8,56.16 152.03,77.63 217.03,131.46 -271.63,88.17 -220.48,302.1 -294.02,400.48 -90.06,-66.24 -84.02,-60.46 -132.23,-187.4l-322.2 58.77c109.46,-362.74 131.2,-177.3 -8.92,-506.01zm2872.31 -255.2c438.66,51.93 191.19,-24.48 451.51,-141.56 48.78,260.4 59.04,267.38 280.27,361.56 -153.58,194.7 -164.39,32.68 -237.22,305.62l-54.76 115.34 -124.05 -176.33 -304.72 49.82c61.36,-352.28 74.71,-160.57 -11.03,-514.45zm-1816.86 -693.56c495.62,59.88 165.5,-25.31 464.58,-127.28 140.49,283.99 -112.48,142.22 270.54,339.68 -57.03,143.84 -103.43,71.39 -178.05,157.26 -79.99,92.06 -30.16,156.96 -92.49,279.22l-147.63 -177.48 -312.28 28.74c151.17,-382.48 99.34,-135.69 -4.68,-500.14zm2368.21 -920.44c109.91,335.63 4.1,169.28 267.03,357.96 -63.4,146.27 -76.18,60.53 -162.92,177.69 -78.22,105.64 -16.79,92.1 -105.72,200.57 -257.7,-138.83 12.68,-110.7 -423.64,-124.76 122.35,-376.56 66.05,-151.76 -16.3,-474.11 468.86,11.74 221.27,-63.05 441.55,-137.35zm-3782.34 -2.53c310.11,29.3 234.93,63.99 434.59,-124.12 30.26,35.09 -4.88,-31.82 35.76,65.43 151.77,363.24 -29.39,68.22 270.62,306.93 -329.33,171.3 -146.44,91.32 -281.24,387.46 -85.29,-48.21 -85.85,-80.88 -115.38,-158.5l-343.79 23.38c115.17,-373.68 91.88,-140.94 -0.56,-500.58zm2407.06 -1008.61c125.63,162.02 -14.62,169.8 211.71,311.14 77.61,48.46 -4.92,-8.3 68.87,45.66l43.55 40.29c-164.93,94.08 -252.7,139.92 -317.53,352.6 -232.99,-104.94 190.27,123.67 -92.72,-67.59 -134.32,-90.78 -132.67,-57.87 -295,-53.14 33.12,-302.76 32.19,-183.14 -26.25,-475.87 319.18,18.89 254.33,26.96 407.37,-153.08zm-1154.95 4327.72c-24.24,192.31 -72.17,108.82 -101.66,281.78 129.48,87.63 290.52,113.82 463.15,86.23l-37.83 -358.62c386.19,-1.25 352.05,176.43 1033.55,-53.47 1544.51,-521.02 2278.32,-2561.74 1261.37,-3954.28 -1292.06,-1769.26 -3858.23,-1115.6 -4374.53,946.79 -315.92,1261.97 285.99,2456.59 1267.47,2898.22 155.64,70.03 347.37,75.97 488.49,153.35z"/>
   <path class="fil1" d="M6019.56 4885.52l-34.99 283.2 381.85 -57.11 -118.35 -249.6c138.04,-88.01 715.17,-50.2 1311.12,-989.76 308.3,-486.06 462.72,-1247.14 303.16,-1917.34 -298.67,-1254.47 -1696.49,-2008.69 -2807.19,-1712.85 -1258.04,335.08 -1914.92,1256.58 -1707.1,2816.87 114.8,861.89 504.01,814.35 1013.39,1304.84 609.59,587 744.01,700.89 1658.13,521.73z"/>
   <path class="fil4" d="M2960.26 8340.3c61.97,203.44 -28.63,360.35 -269.79,355.9 -294.74,-349.39 23.22,-639.81 269.79,-355.9zm699.47 -921.55l-10.13 289.92c-156.98,71.12 -424.73,169.1 -427.13,-135.53 -2.3,-289.95 280.82,-212.9 437.27,-154.39zm-1297.57 307.64c-315.08,116.09 -566.45,-79.64 -351.4,-314.82 220.66,-241.3 391.08,14.06 351.4,314.82zm-1241.35 -36.57c-127.3,204.37 -609.46,52.07 -401,-263.59 157.05,-237.83 535.76,47.25 401,263.59zm1496.94 -1218.78c269.79,-64.58 405.96,38.42 364.87,337.87 -265.62,196.4 -518.6,67.01 -364.87,-337.87zm-1311.55 352.37c-99.81,-435.48 281.71,-461.91 378.63,-274.97 141.14,272.22 -120.8,429.91 -378.63,274.97zm2884.99 26.19c-146.3,58.2 -354,89.09 -366.5,-156.52 -14.38,-282.27 177.86,-245.66 406.37,-191.18l-27.67 318.46c-2.61,7.7 -7.36,19.85 -12.19,29.24zm362.62 -879.99c-90.67,-187.93 -43.62,-286.51 44.71,-400.83 299.21,-54.54 354.67,133.16 304.22,413.42l-348.93 -12.59zm-1250.7 -10.16c-30.88,-31.47 -99.44,-71.68 -64.53,-243.68 19.25,-94.81 61.08,-138.84 170.7,-150.72 399.42,-43.34 315.11,601.57 -106.18,394.41zm-1336.18 -41.09c-86.7,-530.75 543.28,-520.95 371.95,61.1 -195.22,26.67 -250.15,12.56 -371.95,-61.1zm-887.75 -7.29c-48.74,60.15 -21.34,64.43 -140.98,83.38 -331.59,52.54 -266.04,-289.98 -209.27,-357.89 162.18,-194.02 524.23,-0.73 350.25,274.51zm3156.73 -1142.95c55.11,412.37 -288.35,452.1 -386.46,247.62 -164.72,-343.32 120.43,-411.06 386.46,-247.62zm-1622.78 -63.08c80.08,-43.61 175.61,-45.47 276.48,-24.69 44.09,77.03 141.16,232.16 55.38,354.13 -80.16,113.96 -503.83,171.57 -331.86,-329.44zm-1290.35 375.66c-39.06,-136.17 -23.47,-240.91 11.36,-389.52 322.33,-11.47 443.77,15.46 350.16,356.25 -137.83,67.33 -187.84,86.97 -361.52,33.27zm616.89 -1177.57c-655.81,34.52 -1096.74,464.63 -1374.82,863.51 -219.14,314.33 -560.2,1220.39 -405.77,1729.96 -5.14,-95.89 -9.94,-15.19 41.35,-48.21 218.4,30.69 255.3,113.86 244.62,351.98l-210.35 105.28c128.38,614.65 631.48,1302.92 1061.74,1478.36l75.93 -131.05 319.13 19.52 28.56 334.42c208.08,182.15 542.87,243.72 875.27,247.77 747.28,9.09 711.96,-148.02 884.43,-167.3 5.49,-0.61 19.14,0.9 23.64,0.68 4.63,-0.22 16.4,0.05 24.21,2.22l37.13 236.87c186.01,28.85 348.15,-94.96 416.79,-191.26 -56.97,-177.55 -113.73,-80.88 -111.12,-274.66 -21.12,-33 -55.03,54.04 -29.42,-99.49 8.96,-53.73 29.63,-76.98 75.1,-101.28 92.59,-49.48 197.16,-33.73 264.83,14.8 183.89,-137.99 346.08,-264.08 425.23,-536.2 -33.67,-30.81 -61.38,-52.12 -103.55,-88.96 -15.05,-225.84 76.23,-359.29 279.29,-290.16 109.23,-168.33 264.86,-767.06 284.38,-1017.49 27.97,-358.7 -17.32,-568.47 -109.16,-886.2l-29.08 -201.32c9.95,-73.71 4.52,-46.4 26.89,-85.37l-17.5 -48.5 -547.05 -645.32c-152.18,-164.07 -450.2,-383.66 -738.67,-462.81 -12.89,99.58 -43.63,139.38 -82.64,204.34 -271.6,24.34 -392.29,-69.07 -326.43,-350.67 -22.16,-19.34 -14.21,-19.3 -66.57,-41.17 -177.21,-74.03 -735.32,-84.87 -893.67,-18.7 51.96,58.19 132.01,104.29 114.67,242.14 -11.73,93.21 -77.49,163.46 -159.74,177.17 -217.63,36.28 -295.29,-132.94 -297.64,-322.87z"/>
   <path class="fil1" d="M8203.94 9792.52c-162.49,444.89 -860.78,136.46 -651.08,-288.71 183.26,-371.58 822.26,-179.99 651.08,288.71zm-2579.53 -493.11c-136.19,-423.73 532.43,-690.13 667.64,-237.87 148,495.07 -541.87,629.2 -667.64,237.87zm1140.26 -176.11c-162.89,-482.86 562.53,-656.08 659.24,-241.68 120.8,517.61 -536.79,604.63 -659.24,241.68zm1503.32 -211.32c-53.78,-431.88 663.11,-571.09 701.83,-66.86 36.06,469.8 -648.56,494.66 -701.83,66.86zm-661.49 -1130.4c494.42,-233.5 668.91,484.84 293.66,628.97 -215.45,82.75 -428.53,-33.12 -485.21,-196.74 -79.76,-230.32 36.32,-358.92 191.54,-432.23zm1194.23 -29.28c447.43,-288.9 697.41,417.84 322.78,610.02 -200.65,102.93 -366.1,5.26 -439.57,-150.76 -124.87,-265.2 -46.12,-354.08 116.8,-459.25zm-3501.32 -264.95c482.62,-147.74 576.51,592.68 217.68,662.73 -206.02,40.22 -429.27,-61.51 -453.29,-226.44 -36.68,-251.95 43.79,-377.56 235.61,-436.29zm1106.34 83.18c489.56,-214.33 646.85,524.53 232.05,632.71 -244.14,63.68 -398.08,-69.2 -451.66,-243.73 -74.29,-242.01 52.37,-315.75 219.61,-388.97zm2250.15 -676.4c463.05,-182.65 602.82,547.51 187.33,657.56 -386.75,102.44 -692.99,-458.1 -187.33,-657.56zm-1402.77 -92c114.9,-89.16 292.94,-239.06 521.57,-108.78 165.06,94.03 194.98,328.51 100.49,489.22 -179.37,305.07 -699.63,226.82 -622.07,-380.44zm-1446.37 -468.24c501.19,-205.31 620.63,545.13 234.95,644.42 -402.21,103.55 -731.62,-440.97 -234.95,-644.42zm2240.03 -574.61c515.08,-142.43 551.51,540.87 209.08,647.35 -437.93,136.17 -706.53,-509.79 -209.08,-647.35zm-1222.82 -24.47c473.3,-217.04 658.59,437.07 289.15,617.36 -384.78,187.77 -743.63,-408.95 -289.15,-617.36zm-566.58 -234.47c-18.04,521.14 -136.11,647.42 -620.93,461.77 -205.77,136.24 -487.04,642.41 -596.54,957.38 -290.62,835.94 -165.92,1782.39 393.22,2466.42 175.43,214.6 598.21,566.87 894.1,687.84 51.18,-135.99 230.44,-319.61 458.54,-293.37 266.15,30.6 256.59,264.3 245.58,521.28 296.21,32.27 275.13,9.45 527.23,-47.75l-88.13 375.06 492.28 -46.41c-16.34,-131.17 -86.34,-140.37 -127.26,-296.63 813.09,-145.64 1238.95,-549.07 1571.71,-1077.97 334.84,-532.19 192.59,-341.85 88.1,-959.99 -68.62,-405.97 -63.21,-845.87 44.08,-1234.15 97.98,-354.64 -53.46,-527.31 -362.58,-914.36 -687.1,-860.31 -2044.62,-1104.52 -2919.41,-599.11z"/>
   <path class="fil4" d="M5187.61 22002.49c-115.53,287.21 -44.29,733.63 233.22,810.19 1158.2,319.56 4102.48,-2363.79 4123.45,-3491.04 -326.47,-141.15 -731.76,-254.08 -1045.98,-429.73 -108.96,-60.9 -954.36,-631.44 -862.86,-168.79 48.01,242.75 175.99,348.7 -25.61,592.32 -480.98,581.25 -1397.14,18.23 -1693.98,134.4 114.9,218.39 292.05,307.1 390.14,649.64 95.33,332.86 -15.84,607.97 -181.75,794.21 -223.61,251.02 -303.71,167.62 -410.64,610.91 -103.57,429.36 -274.93,291.13 -525.99,497.89z"/>
   <path class="fil1" d="M6672.18 22789.36c269.17,426.48 1137.31,714.39 1798.66,484.77 489.08,-169.8 1228.96,-668.81 1049.56,-1349.95 -101.72,-386.23 -339.05,-391.55 -714.74,-520.7 -385.67,-132.57 -372.69,-22.02 -749.02,329.82 -394.11,368.46 -1008.3,680.3 -1384.46,1056.06z"/>
   <path class="fil1" d="M8766.09 21137.94c740.92,339.4 1269.05,489.35 1667.57,-266.84 265.68,-504.12 339.59,-1768.58 -631.14,-1536.13 -71.62,151.06 -113.84,348.5 -202.89,524.75 -244.27,483.45 -705.91,907.33 -833.54,1278.22z"/>
   <path class="fil1" d="M4386.47 20564.94c-92.3,237.86 -203.21,308.99 -169.09,673.88 71.13,760.71 1193.34,420.26 1194.03,419.72 67.31,-52.87 183.92,-514.94 208.8,-635.24l-1233.74 -458.35z"/>
   <path class="fil1" d="M8554.96 17646.98c11.16,299.61 19.49,868.53 237.67,987.89 324.78,177.7 665.86,-112.93 740.17,-386.34 91.96,-338.39 -68.26,-772.18 -252.84,-910.5 -261.36,-195.86 -737.63,-30.66 -725,308.95z"/>
   <path class="fil5" d="M4928.46 20539.25l17.86 -53.37c7.46,-49.71 9.72,-25.07 8.42,-89.96 -0.02,-0.72 -134.77,-718.29 298.53,-584.41 141.67,43.78 115.24,100.57 187.93,225.9 725.3,10.16 510.66,369.37 1.58,691.96 259.12,226.24 666.71,212.76 711.66,-230 75.03,-739.23 -616.04,-1188.83 -1288.87,-934.17 -358.14,135.55 -399.26,342.99 -373.98,793.86 111.39,89.73 289.27,141.9 436.87,180.19z"/>
   <path class="fil6" d="M5439.47 14108.71l60.02 151.93 -154.8 33.36 -419.59 15.5c6.34,166.12 50.31,128.95 130.04,237.98l150.26 34.12 31.55 105.63 89.31 49.74c8.6,108.37 -11.44,171.53 -41.17,253.23 -49.28,135.43 -58.83,97.39 -70.17,282.66l154.07 -18.27c63.5,-107.4 60.95,-77.95 186.73,-152.11 200.47,-230.57 434.78,96.82 676.02,202.76l-37.41 -224.17c-58.22,-108.39 -112.68,-206.22 -121.86,-372.23 74.74,-27.77 152.03,-55.21 231.97,-89.33l-39.76 -14.96c98.72,-78.91 165.75,-159.48 237.24,-241.6 -129.99,-90.18 -383.6,-50.09 -591.32,-69.66l-38.96 -140.94c-56.98,-113.21 -51.57,-111.13 -1.84,-226.87 -158.53,-101.07 -50.12,-123.88 -174.66,-175.56 -125.05,182.34 -46.06,286.82 -255.68,358.79z"/>
   <path class="fil5" d="M6304.45 14619.5c-79.94,34.13 -157.24,61.56 -231.97,89.33 9.18,166.01 63.64,263.83 121.86,372.23 213.25,114.88 760.55,476.99 911.18,31.29 211.35,-625.34 -356.26,-576.08 -801.07,-492.85z"/>
   <path class="fil4" d="M4928.46 20539.25l514.32 190.12c509.09,-322.59 723.72,-681.8 -1.58,-691.96 -72.69,-125.33 -46.26,-182.12 -187.93,-225.9 -433.3,-133.88 -298.55,583.69 -298.53,584.41 1.3,64.9 -0.96,40.25 -8.42,89.96l-17.86 53.37z"/>
   <path class="fil4" d="M5555.73 15102.47c-33.31,344.28 -83.77,817.5 286.5,889.07 196.61,37.99 375.92,-79.52 441.77,-186.82 112.76,-183.72 13.64,-355.75 -52.25,-499.48 -241.25,-105.95 -475.56,-433.33 -676.02,-202.76z"/>
   <path class="fil4" d="M5871.65 14152.35l38.96 140.94c207.72,19.57 461.32,-20.52 591.32,69.66 155.62,-66.86 325.43,-128.69 372.19,-324.62 61.8,-259.01 -22.92,-418.4 -219.31,-488.09 -383.03,-135.92 -602.14,377.25 -783.16,602.1z"/>
   <path class="fil5" d="M5369 15254.59l-154.07 18.27c11.34,-185.27 20.89,-147.23 70.17,-282.66 29.73,-81.7 49.77,-144.86 41.17,-253.23l-89.31 -49.74c-206.49,72.26 -334.06,76.64 -515.48,189.44 -369,229.43 -275.17,819.76 263.76,724.82 216.88,-38.21 313.98,-168.87 383.76,-346.89z"/>
   <path class="fil4" d="M5055.15 14547.48c-79.73,-109.02 -123.7,-71.86 -130.04,-237.98l419.59 -15.5c-118.97,-269.83 -648.99,-676.37 -1000.01,-357.04 -258.39,235.05 51.47,870.61 710.46,610.53z"/>
   <path class="fil5" d="M5439.47 14108.71c209.63,-71.97 130.63,-176.45 255.68,-358.79 124.54,51.68 16.13,74.49 174.66,175.56 64.36,-445.37 -86.75,-994.87 -620.35,-704.03 -389.6,212.35 -51.74,733.87 190.01,887.26z"/>
   <path class="fil1" d="M6389.18 19352.24c319.28,43.68 475.42,164.78 836.2,36.94 287.66,-101.92 317.99,-291.34 269.06,-617.06 -176.18,30.55 -459.31,168.76 -607.71,243.24 -156.79,78.71 -413.87,181.47 -497.55,336.87z"/>
   <path class="fil5" d="M8203.94 9792.52c171.18,-468.69 -467.82,-660.29 -651.08,-288.71 -209.71,425.17 488.59,733.6 651.08,288.71z"/>
   <path class="fil7" d="M7606.5 7781.58c-155.22,73.31 -271.31,201.91 -191.54,432.23 56.67,163.62 269.76,279.49 485.21,196.74 375.25,-144.13 200.75,-862.47 -293.66,-628.97z"/>
   <path class="fil5" d="M5624.4 9299.41c125.77,391.33 815.64,257.2 667.64,-237.87 -135.21,-452.26 -803.83,-185.86 -667.64,237.87z"/>
   <path class="fil8" d="M8267.98 8911.98c53.27,427.8 737.89,402.95 701.83,-66.86 -38.72,-504.24 -755.61,-365.03 -701.83,66.86z"/>
   <path class="fil9" d="M6764.67 9123.3c122.45,362.96 780.04,275.93 659.24,-241.68 -96.71,-414.41 -822.13,-241.19 -659.24,241.68z"/>
   <path class="fil8" d="M5806.77 6333.87c-496.67,203.45 -167.26,747.97 234.95,644.42 385.68,-99.29 266.24,-849.73 -234.95,-644.42z"/>
   <path class="fil3" d="M7253.14 6802.12c-77.56,607.26 442.7,685.51 622.07,380.44 94.49,-160.71 64.57,-395.2 -100.49,-489.22 -228.64,-130.27 -406.67,19.62 -521.57,108.78z"/>
   <path class="fil8" d="M6405.75 7570.52c-167.24,73.22 -293.89,146.96 -219.61,388.97 53.58,174.53 207.52,307.41 451.66,243.73 414.8,-108.17 257.51,-847.04 -232.05,-632.71z"/>
   <path class="fil9" d="M8655.91 6894.12c-505.66,199.46 -199.43,760 187.33,657.56 415.5,-110.05 275.72,-840.21 -187.33,-657.56z"/>
   <path class="fil8" d="M8046.8 5759.26c-497.46,137.56 -228.86,783.52 209.08,647.35 342.44,-106.48 306,-789.78 -209.08,-647.35z"/>
   <path class="fil3" d="M8800.73 7752.3c-162.91,105.18 -241.67,194.05 -116.8,459.25 73.47,156.03 238.92,253.69 439.57,150.76 374.64,-192.17 124.65,-898.92 -322.78,-610.02z"/>
   <path class="fil3" d="M5299.41 7487.34c-191.82,58.72 -272.3,184.34 -235.61,436.29 24.02,164.93 247.27,266.66 453.29,226.44 358.83,-70.04 264.94,-810.46 -217.68,-662.73z"/>
   <path class="fil9" d="M6823.98 5734.8c-454.48,208.41 -95.63,805.13 289.15,617.36 369.44,-180.29 184.15,-834.4 -289.15,-617.36z"/>
   <path class="fil6" d="M11974.72 9133.27c62.45,332.27 78.52,128.07 20.48,495.12 285.02,-25.64 274.33,31.84 470.36,103.12 18.06,-99.62 17.75,-203.97 86.22,-268.77l195.2 -135.92c-350.29,-122.73 -171.1,-120.14 -359.52,-341.22 -200.82,197 -49.33,154 -412.74,147.67z"/>
   <path class="fil0" d="M5677.01 17974.44c26.26,-313.33 200.9,-417.52 400.77,-226.21 -9.62,229.53 -154.39,242.21 -400.77,226.21zm-109.2 150.19c215.6,44.81 423.21,44.52 567.98,-72.52 154.99,-125.3 162.77,-384.62 19.61,-477.69 -357.04,-232.12 -814.25,61.12 -587.59,550.21z"/>
   <path class="fil6" d="M13422.74 8371.69c85.74,353.88 72.39,162.17 11.03,514.45l304.72 -49.82 124.05 176.33 54.76 -115.34c72.83,-272.94 83.64,-110.92 237.22,-305.62 -221.23,-94.18 -231.49,-101.16 -280.27,-361.56 -260.32,117.09 -12.85,193.49 -451.51,141.56z"/>
   <path class="fil6" d="M10550.43 8626.9c140.12,328.71 118.38,143.27 8.92,506.01l322.2 -58.77c48.21,126.94 42.17,121.16 132.23,187.4 73.55,-98.38 22.4,-312.31 294.02,-400.48 -65,-53.83 -174.23,-75.31 -217.03,-131.46 -63.36,-83.14 -23.81,-159.75 -77,-260.47 -246.28,114.54 14.69,171.42 -463.35,157.78z"/>
   <path class="fil6" d="M11605.87 7678.14c104.02,364.46 155.85,117.67 4.68,500.14l312.28 -28.74 147.63 177.48c62.33,-122.26 12.5,-187.16 92.49,-279.22 74.62,-85.87 121.01,-13.42 178.05,-157.26 -383.02,-197.46 -130.04,-55.69 -270.54,-339.68 -299.08,101.97 31.04,187.16 -464.58,127.28z"/>
   <path class="fil6" d="M13532.53 6895.05c82.35,322.35 138.66,97.55 16.3,474.11 436.32,14.06 165.94,-14.07 423.64,124.76 88.92,-108.46 27.49,-94.93 105.72,-200.57 86.75,-117.16 99.52,-31.42 162.92,-177.69 -262.93,-188.69 -157.12,-22.33 -267.03,-357.96 -220.28,74.3 27.31,149.09 -441.55,137.35z"/>
   <path class="fil6" d="M10191.74 6755.18c92.44,359.64 115.73,126.91 0.56,500.58l343.79 -23.38c29.53,77.61 30.09,110.28 115.38,158.5 134.8,-296.14 -48.09,-216.16 281.24,-387.46 -300.01,-238.71 -118.84,56.31 -270.62,-306.93 -40.63,-97.25 -5.49,-30.34 -35.76,-65.43 -199.66,188.11 -124.48,153.42 -434.59,124.12z"/>
   <path class="fil6" d="M12191.42 5899.65c58.44,292.73 59.37,173.11 26.25,475.87 162.33,-4.74 160.68,-37.64 295,53.14 282.98,191.26 -140.27,-37.34 92.72,67.59 64.83,-212.67 152.6,-258.52 317.53,-352.6l-43.55 -40.29c-73.79,-53.96 8.74,2.81 -68.87,-45.66 -226.33,-141.33 -86.09,-149.12 -211.71,-311.14 -153.04,180.05 -88.19,171.97 -407.37,153.08z"/>
   <path class="fil0" d="M3793.83 17822.53c-289.84,197.44 9.43,763.79 325.05,577.41 275.93,-162.94 -30.77,-777.87 -325.05,-577.41z"/>
   <path class="fil0" d="M7392.97 16837.16c114.65,-371.08 51,-319.68 -73.66,-601.19 -291.13,-22.59 -429.82,-15.45 -390.96,315.08 32.25,274.2 192.95,302.22 464.62,286.1z"/>
   <path class="fil6" d="M6327.25 10073.74c143.39,162.8 443.3,190.51 704.13,227.91 11.01,-256.98 20.57,-490.68 -245.58,-521.28 -228.11,-26.23 -407.36,157.39 -458.54,293.37z"/>
   <path class="fil6" d="M5636.47 5962.1c484.82,185.65 602.88,59.37 620.93,-461.77 -239.76,83.15 -511.81,295.28 -620.93,461.77z"/>
   <path class="fil5" d="M1120.81 7689.82c134.76,-216.34 -243.95,-501.42 -401,-263.59 -208.46,315.66 273.7,467.97 401,263.59z"/>
   <path class="fil5" d="M4235.9 4768.12c-266.03,-163.44 -551.18,-95.7 -386.46,247.62 98.11,204.48 441.57,164.75 386.46,-247.62z"/>
   <path class="fil5" d="M1939.66 3903.14c2.35,189.93 80.01,359.15 297.64,322.87 82.25,-13.71 148.02,-83.96 159.74,-177.17 17.34,-137.86 -62.71,-183.95 -114.67,-242.14 -174.95,-2.49 -237.19,-24.95 -342.72,96.45z"/>
   <path class="fil5" d="M1079.17 5911.07c173.98,-275.24 -188.07,-468.53 -350.25,-274.51 -56.77,67.91 -122.32,410.43 209.27,357.89 119.64,-18.95 92.24,-23.23 140.98,-83.38z"/>
   <path class="fil5" d="M1306.2 6823.41c257.83,154.94 519.77,-2.76 378.63,-274.97 -96.93,-186.94 -478.45,-160.5 -378.63,274.97z"/>
   <path class="fil5" d="M1966.92 5918.36c121.8,73.66 176.73,87.77 371.95,61.1 171.33,-582.05 -458.64,-591.85 -371.95,-61.1z"/>
   <path class="fil5" d="M3303.1 5959.45c421.29,207.16 505.6,-437.74 106.18,-394.41 -109.62,11.89 -151.45,55.92 -170.7,150.72 -34.92,172 33.65,212.21 64.53,243.68z"/>
   <path class="fil5" d="M2617.75 6471.04c-153.73,404.89 99.24,534.27 364.87,337.87 41.09,-299.45 -95.08,-402.45 -364.87,-337.87z"/>
   <path class="fil5" d="M3659.73 7418.75c-156.45,-58.51 -439.56,-135.56 -437.27,154.39 2.41,304.62 270.16,206.65 427.13,135.53l10.13 -289.92z"/>
   <path class="fil5" d="M1322.77 5080.7c173.68,53.7 223.69,34.07 361.52,-33.27 93.61,-340.79 -27.83,-367.72 -350.16,-356.25 -34.83,148.62 -50.42,253.35 -11.36,389.52z"/>
   <path class="fil5" d="M2362.16 7726.39c39.68,-300.77 -130.74,-556.12 -351.4,-314.82 -215.05,235.18 36.31,430.91 351.4,314.82z"/>
   <path class="fil5" d="M2960.26 8340.3c-246.57,-283.9 -564.53,6.51 -269.79,355.9 241.16,4.45 331.76,-152.46 269.79,-355.9z"/>
   <path class="fil5" d="M4553.8 5969.61l348.93 12.59c50.44,-280.26 -5.02,-467.96 -304.22,-413.42 -88.32,114.32 -135.38,212.9 -44.71,400.83z"/>
   <path class="fil5" d="M2613.12 4705.04c-171.97,501.01 251.7,443.4 331.86,329.44 85.79,-121.96 -11.29,-277.1 -55.38,-354.13 -100.87,-20.78 -196.4,-18.92 -276.48,24.69z"/>
   <path class="fil5" d="M4191.19 6849.6c4.83,-9.39 9.58,-21.54 12.19,-29.24l27.67 -318.46c-228.51,-54.48 -420.74,-91.08 -406.37,191.18 12.51,245.61 220.21,214.72 366.5,156.52z"/>
   <path class="fil5" d="M1296.44 8384.01c89.66,105.77 243.39,210.89 423.62,222.88l-28.56 -334.42 -319.13 -19.52 -75.93 131.05z"/>
   <path class="fil5" d="M3651.69 4012.89l-409.07 -146.33c-65.86,281.6 54.84,375.01 326.43,350.67 39.01,-64.96 69.75,-104.76 82.64,-204.34z"/>
   <path class="fil6" d="M5677.01 17974.44c246.38,16 391.15,3.32 400.77,-226.21 -199.87,-191.31 -374.51,-87.12 -400.77,226.21z"/>
   <path class="fil5" d="M159.08 6496.61l75.63 409.04 210.35 -105.28c10.68,-238.12 -26.22,-321.29 -244.62,-351.98 -51.29,33.03 -46.48,-47.67 -41.35,48.21z"/>
   <path class="fil5" d="M4606.14 7739.03l175.74 -379.12c-203.06,-69.13 -294.33,64.32 -279.29,290.16 42.17,36.84 69.88,58.15 103.55,88.96z"/>
   <path class="fil5" d="M3870.41 8461.21c198.92,-18.94 264.79,-39.47 310.51,-185.98 -67.67,-48.52 -172.24,-64.28 -264.83,-14.8 -45.47,24.31 -66.14,47.55 -75.1,101.28 -25.61,153.53 8.3,66.5 29.42,99.49z"/>
  </g>
 </g>
</svg>
