<?xml version="1.0" encoding="UTF-8"?>
<!DOCTYPE svg PUBLIC "-//W3C//DTD SVG 1.1//EN" "http://www.w3.org/Graphics/SVG/1.1/DTD/svg11.dtd">
<!-- Creator: CorelDRAW -->
<svg xmlns="http://www.w3.org/2000/svg" xml:space="preserve" width="95.4116mm" height="119.916mm" version="1.1" style="shape-rendering:geometricPrecision; text-rendering:geometricPrecision; image-rendering:optimizeQuality; fill-rule:evenodd; clip-rule:evenodd"
viewBox="0 0 9526.92 11973.67"
 xmlns:xlink="http://www.w3.org/1999/xlink"
 xmlns:xodm="http://www.corel.com/coreldraw/odm/2003">
 <defs>
  <style type="text/css">
   <![CDATA[
    .str0 {stroke:#EB1A22;stroke-width:7.61;stroke-miterlimit:22.9256}
    .fil0 {fill:#030303}
    .fil12 {fill:#2C2E31}
    .fil6 {fill:#43C2BB}
    .fil8 {fill:#53BDE3}
    .fil5 {fill:#5E6164}
    .fil13 {fill:#68B1B2}
    .fil4 {fill:#95969A}
    .fil11 {fill:#AE6887}
    .fil7 {fill:#B83735}
    .fil10 {fill:#BABABA}
    .fil14 {fill:#E7D155}
    .fil2 {fill:#EB1A22}
    .fil3 {fill:#EE5AA1}
    .fil9 {fill:#F9DC0A}
    .fil1 {fill:#FDFDFD}
   ]]>
  </style>
 </defs>
 <g id="Layer_x0020_1">
  <metadata id="CorelCorpID_0Corel-Layer"/>
  <g id="_2647438509088">
   <path class="fil0" d="M5804.21 11536c-55.56,74.14 -84.68,78.81 -196.84,121.27 -205.19,87.79 -662,117.93 -885.9,12.93l-142.08 -68.44c-287.75,-142.61 -301.51,-381.05 -284.39,-774.02l1.26 -74.04 100.66 -1.77c431.82,27.91 22.99,194.55 512.61,176.34l-47.12 73.38c-30.72,56.12 -20.79,13.9 -51.99,110.71 183.85,3.31 239.78,-130.51 338.86,-199.09 61.45,47.32 62.5,61.35 118.87,114.78 98.54,93.36 63.25,70.86 197.99,90.94 -14.69,-183.27 -49.58,-56.25 -96.62,-202.05 83.67,19.36 154.84,50.7 243.23,-5.16 140.25,-88.67 -4.35,-121.09 190.94,-165.61l367.66 -36.86c-6.72,336.62 -125.36,742.73 -367.16,826.69zm-448.57 -774.32c5.23,-3.68 -26.55,-51.65 111.05,-50.1 217.11,2.47 52.21,1.1 116.16,50.1 -95.92,121.31 -153.36,57.15 -227.21,0zm-630.19 0c36.98,-31.48 -61.19,-38.8 105.42,-51.44 35.26,-2.68 104.16,14.44 141.66,21.26 -54.84,87.57 -173.38,151.8 -247.08,30.18zm1280.79 -267.95c-562.24,-7.01 -1041.44,128.88 -1649.9,2.36l-33.65 -360.89c659.4,27.96 1012.95,108.68 1711.12,17.94l186.39 -38.67c-27.83,273.42 43.82,342.67 -213.96,379.26zm-2847.34 517.92c-1475.56,-45.37 -740.46,-2678.52 510.87,-1910.92 618.12,370.23 369.95,1789.82 -510.87,1910.92zm2757.04 -2124.46l166.93 -32.06 121.57 -37.18c99.41,154.99 209.56,804.58 181.62,1024.25l-166.17 37.29 -110.78 17.25c-368.89,124.07 -1331.26,61.01 -1760.42,4.1 -67.86,-284.19 95.58,-489.23 -46.85,-678.08 -104.44,8.15 -116.6,40.77 -174.1,100.93 -68.72,-94.8 -133.69,-191.72 -177.06,-296.9 654.8,-37.42 1364.76,93.92 1965.26,-139.61zm-3374.76 122.03l28.1 -186.41c140.49,-3.19 91.8,-20.31 197.34,38.79 -86.38,90.33 -102,110.86 -225.43,147.62zm2501 -1625.64l134.28 -287.79c905.47,-5.01 708.25,-134.9 879.07,864.14 107.68,629.74 185.45,660.89 -188.53,700.3 -494.77,101.44 -1077.03,204.44 -1649.14,144.79 -477.41,-49.79 -1231.53,-115.38 -1655.81,-243.25 -20.43,-327.58 488.24,-1537.02 617.64,-1883.64l445.84 117c73.53,425.46 80.47,608.44 484.1,750.56 558.34,196.6 821.61,-133.65 932.55,-162.11zm2433.73 467.41c-138.53,262.14 35.78,174.39 -10.65,471.96 -25,160.3 -145.7,322.8 -243.7,390.72 -458.33,317.66 -1208.88,-144.68 -731.95,-659.8 260.08,-280.91 406.66,-472.35 747.23,-532.78 222.53,-39.47 335.09,148.21 239.06,329.91zm-811.71 -360.59c-17.25,78.39 -237.39,288.99 -352.44,366.86l-79.05 -222.79c-21.74,-116.88 -38.94,-155.42 -14.48,-280.46 -13.78,-16.43 -103.2,34.59 -39.26,-251.75 230.26,-66.08 598.47,127.28 615.87,312.9 -73.99,61.46 -36.06,30.65 -130.63,75.24zm-1937.45 -181.13c-171.08,187.51 -708.15,57.58 -784.91,-191.14 -91.49,-70.6 -83.29,-95.3 -98.41,-238.08l1091.21 191.49c-16.21,157.04 -76.75,183.68 -207.89,237.73zm-2059.81 33.3l-77.54 223.71c-203.81,-13.57 -693.19,-241.47 -780.4,-358.45 57.99,-102.94 107.25,-163.2 217.53,-221.12l551.25 -691.96c524.01,215.91 265.05,688.79 89.17,1047.82zm-976.15 -403.96c-24.71,58.33 4.38,37.68 -64.13,99.87 -175.69,-19.35 -329.93,-228.79 -383.91,-393.47 -128.23,-101.16 -213.42,-507.02 103.17,-772.83 117.63,-98.77 211.41,-143.68 409.03,-125.95 392.35,35.19 157.13,-131.38 431.94,-113.56 318.59,20.66 175.09,541.38 46.46,703.77 -167.6,211.62 -338.94,494.98 -542.56,602.18zm6312.04 -2792.22c74.55,-70.48 310.35,-158.47 430.12,-191.76 -1.36,211.49 7.75,443.5 -33.82,628.91l-360.74 34.06c-145.55,3.33 -173.35,3.48 -198.09,127.14 72.22,75.33 49.22,59.63 162.52,78.49l317.8 15.17c60.05,161.97 -65.34,414.9 -107.76,530.91l-350.95 8.38 1.95 87.04c76.4,41.62 144.6,89.19 209.24,159.69 -18.75,113.48 -126.24,261.64 -189.06,338.33 -151.09,184.46 -230.7,40.83 -453.4,56.18l0.72 155.85 118.22 73.56c-49.43,119.95 -97.18,141.29 -201.26,200.44 -90.94,51.67 -189.52,112.02 -304.51,142.14 -830.46,413.67 -2150.24,234.35 -3074.12,4.26 -1990.95,-495.84 -1048.88,-824.38 -1548.08,-1132.83 -309.1,-190.98 -447.36,41.51 -674.68,38.3l-82.71 -114.45c172.45,-129.13 251.39,-7.05 238.93,-219.21 -293.64,-155.71 -361.3,207.95 -566.49,-238.18 -7.32,-15.93 -49.45,-121.46 -50.8,-128.53 -13.66,-71.6 -4.73,55.57 -6.13,-57.52 -1.67,-135.31 -1.19,-47.29 14.07,-89.39 144.43,-49.74 257.81,10.12 280.54,-142.05 -153.29,-119.6 -554.34,76.09 -420.08,-660.56 218.82,-35.29 293.47,103.65 506.66,15.72 -12.18,-233.45 -153.43,-144.88 -482.66,-287.09 -19.11,-313.79 128.94,-618.78 254.16,-855.82 1317.2,-86.71 2525.8,-0.23 3781.09,198.5 353.99,56.05 1382.2,235.69 1622.47,386.37 103.82,65.12 115.53,193.43 175.15,315.83 319.3,655.54 757.44,447.68 991.72,522.13zm-379.27 -1028.38c-0.42,-116.14 4.95,-92.28 76.63,-187.42 100.49,-133.36 68.01,-128.32 171.23,-85.93 125.05,187.87 -25.67,328.22 -247.86,273.35zm-1723.57 -378.91l233.58 -61.95 95.56 116.79c-110.05,23.48 -238.62,0.28 -329.14,-54.84zm1682.61 -105.56c-292.19,766.92 -1394.89,389.13 -1126.02,-387.45 258.81,-747.56 1408.27,-353.35 1126.02,387.45zm826.28 -360.96c375.94,55.96 634.06,385.13 457.07,799.03 -120.86,282.61 -428.66,597.69 -722.21,687.53 -356.49,299.08 -972.26,-18 -950.19,-458.5 321.07,-107.62 172.8,-27.27 434.3,25.84 209.26,42.5 363.82,-47.21 439.17,-171.91 275.59,-456.03 -402.26,-616.55 -150.22,-850.41 105.81,-109.37 448.07,-48.12 492.07,-31.57zm-6875.38 -52.34l84.57 -175.04c81.23,-258.38 440.5,-181.04 713.13,-185.04 1111.63,-16.33 1346.7,14.66 2461.44,144.68l44.62 170.88 29.2 105.09c31.29,32.53 268.92,322.46 275.33,337.49 -233.88,-2.57 -588.13,-81.46 -852.33,-113 -1087.01,-129.78 -1760.8,-94.22 -2857.61,-62.43 26.26,-122.41 29.07,-145.35 101.64,-222.64zm4707.83 -217.03c-189.89,-144.75 -99.76,-257.83 21.97,-395.39 122.37,-4.99 205.26,4.42 280.3,53.14 -14.43,118.16 -67.2,109.68 -136.1,188.28 -81.46,92.93 -45.26,106.8 -166.17,153.97zm-77.33 348.84c-119.14,140.23 -427.63,139.65 -649.19,90.71 -726.47,-160.47 -429.55,-1025.02 -50.15,-1500.41 932.98,-1169.03 1552.53,166.17 1438.81,626.07 -149.06,4.13 -548.85,-456.46 -872.65,-60.05 -349.9,428.39 114.71,662.22 133.17,843.67zm2155.87 -1199.72c103.68,42.47 110.18,33.86 152.51,168.96 45.82,146.25 76.99,500.48 30.91,646.95 -115.83,44.07 -363.52,5.46 -525.92,3.1l-224.52 -9.57c-138.77,-192.82 -142.6,-169.31 -388.85,-309.92 -185.88,-106.14 -181.38,-357.83 -147.99,-471.1 258.84,-36.42 928.05,-200.16 1103.86,-28.43zm-6477.2 426.86c-54.49,-415.81 85.55,-788.45 276.57,-1057.38 466.84,-657.29 1403.22,458.25 1695.37,485.47 152.03,14.17 412.71,-11.2 601.26,-0.74 208.85,11.59 387.39,32.32 595.78,47.37l-249.82 650.35c-436.65,-19.93 -947.48,-96.57 -1408.09,-128.4 -500.41,-34.58 -1014.25,16 -1511.07,3.33zm4956.38 5417.5l132.52 -37.75c438.85,-115.62 622.72,-328.68 930.18,-491.59 130.79,-19.29 831.95,646.2 792.13,257.41 -9.42,-91.92 -136.51,-162.76 -223.03,-226.01 -135.18,-98.83 -237.53,-169.15 -334.08,-276.16 25.56,-96.08 218.95,-413.75 293.37,-484.36 270.42,-19.64 449.68,186.89 724.76,118.48 32.02,-253.62 -356.7,-206.12 -590.37,-408.24 -4.76,-148 96.34,-451.05 144.76,-558.65 258.86,-10.21 650.81,178.25 853.98,73.88 58.59,-233.21 -600.75,-291.46 -826.75,-345.71 -14.41,-1393.29 8.4,-625.64 354.82,-1324.58 261.26,-527.12 116.17,-958.81 -266.56,-1190.76 -14.88,-450.31 62.07,-1058.28 -293.23,-1224.69 -398.67,-186.73 -992.98,-15.08 -1411.51,13.74 -82.96,-331.56 -463.2,-720.31 -873.76,-725.58 -492.85,-6.33 -753.52,384.5 -986.51,600.71 -331.73,-14.16 -646,-71.01 -985.87,-75.45 -820.7,-10.69 -475.17,-265.01 -1549.64,-629.66 -398.52,-135.25 -563.86,-40.09 -748.61,205.94 -150.74,200.74 -274.97,418.43 -348.54,704.78 -154.78,602.41 90.87,325.5 -212.4,881.18 -330.9,606.27 -207.43,434.22 -266.72,813.18 -16.98,108.51 -102.31,280.77 -137.97,404.73 -25.11,87.26 -60.96,387.17 -128.03,438.62 -194.09,92.19 -774.85,-176.31 -841.95,143.78 182.72,148.19 615.99,57.52 827.8,170.89 29.49,96.43 22.71,203.26 34.83,320.53 20.84,201.58 43.9,214.9 -23.99,275.97 -174.49,114.63 -442.17,-45.59 -485.53,217.84 136.67,94.04 369.18,41.26 546.73,59.13 80.1,77.93 231.59,435.85 248.93,580.95l-631.94 259.02c-180.05,134.64 -44.85,189.25 -44.79,189.3 160.16,89.45 580.36,-269.18 901.86,-206.5 -81.59,170.85 -377.48,179.38 -474.72,610.09 -75.01,332.2 85,643.76 232.44,831.92 485.25,619.27 1087.52,653.07 1348.04,878.09 -36.11,222.55 -146.87,420.22 -167.16,643.53 -11.97,131.83 37.46,188.59 32.3,296.48 -12,251.26 -368.7,1127.8 -182.01,1727.09 214.44,688.34 911.99,943.12 1485.25,548.24 225.33,-155.22 233.48,-243.21 405.3,-430.96 69.19,550.47 -128,779.37 287.39,1120.11 274.14,224.87 749.55,273.62 1164.89,189.05 884.83,-180.16 902.89,-994.73 991.94,-1884.46 90.47,-46.26 85.8,-24.84 159.97,-89.65l-139.91 -963.74c383.37,61.5 592.68,145.47 870.57,-115.11 202.4,-189.8 343.12,-306.09 324.73,-723.33 -16.9,-383.84 157.94,-596.89 -153.55,-825.08 -186.62,-136.72 -229.14,-54.7 -406.03,-66.18 -113.16,-7.36 -360.72,-166.25 -354.32,-270.48z"/>
   <path class="fil1" d="M4398.37 5007.84c523.24,-212.01 956.39,439.15 476.24,617.97 -491.97,183.22 -977.22,-414.97 -476.24,-617.97zm2617.92 252.23c-226.29,-27.34 -208.39,-341.9 -510.21,-249.34 -93.17,28.58 -171.64,164.89 -282.42,102.69 -123.16,-69.17 -38.18,-204.82 19.91,-259.72 328.93,-310.82 1129.39,130.03 772.72,406.37zm-4317.81 -1312.13c493.17,-206.85 545.99,649.17 179.06,782.69 -523.82,190.61 -538.96,-631.74 -179.06,-782.69zm4345.31 2642.96c88.84,-159.63 247.25,-172.99 387.55,-416.14l-0.72 -155.85 190.92 -76.16c79.1,-45.7 216.73,-319.74 242.3,-478.05l-1.95 -87.04c8.21,-8.37 18.92,-17.79 25.05,-24.64 5.86,-6.56 16.45,-16.36 23.17,-24.39l92.72 -197.73c41.41,-147.68 67.63,-172.51 -0.03,-307.68 -113.3,-18.86 -90.3,-3.17 -162.52,-78.49 24.74,-123.66 52.54,-123.81 198.09,-127.14 62.09,-76.45 65.23,-88.94 74.35,-222.07 5.36,-78.43 3.01,-170.12 1.77,-249.06l-111.67 -0.08c-234.28,-74.45 -672.42,133.41 -991.72,-522.13 -59.62,-122.4 -71.32,-250.71 -175.15,-315.83 -240.26,-150.68 -1268.47,-330.33 -1622.47,-386.37 -1255.29,-198.73 -2463.89,-285.21 -3781.09,-198.5 -125.22,237.05 -273.27,542.03 -254.16,855.82 329.23,142.21 470.48,53.64 482.66,287.09 -213.19,87.93 -287.84,-51 -506.66,-15.72 -134.26,736.65 266.79,540.96 420.08,660.56 -22.73,152.17 -136.11,92.31 -280.54,142.05 -15.26,42.1 -15.74,-45.92 -14.07,89.39 1.4,113.09 -7.53,-14.08 6.13,57.52 1.36,7.07 43.49,112.6 50.8,128.53 205.19,446.13 272.85,82.48 566.49,238.18 12.46,212.16 -66.48,90.09 -238.93,219.21l82.71 114.45c227.32,3.21 365.58,-229.29 674.68,-38.3 499.19,308.45 -442.88,636.99 1548.08,1132.83 923.88,230.09 2243.66,409.41 3074.12,-4.26z"/>
   <path class="fil2" d="M5866.99 8660.22l44.96 -49.88c4.74,-5.31 15.51,-17.25 20.66,-23.04l37.4 -42.4c-20.36,-284.5 -144.03,-1143.2 -238.86,-1353.77 -143.21,-34.78 -547.35,107.48 -688.98,192.42 -110.93,28.46 -374.21,358.7 -932.55,162.11 -403.63,-142.12 -410.57,-325.09 -484.1,-750.56l-445.84 -117c-129.4,346.62 -638.07,1556.06 -617.64,1883.64 424.28,127.87 1178.4,193.46 1655.81,243.25 572.1,59.65 1154.36,-43.36 1649.14,-144.79z"/>
   <path class="fil1" d="M1842.64 1579.18c496.82,12.67 1010.66,-37.9 1511.07,-3.33 460.6,31.83 971.44,108.47 1408.09,128.4l249.82 -650.35c-208.39,-15.05 -386.93,-35.78 -595.78,-47.37 -188.55,-10.46 -449.23,14.91 -601.26,0.74 -292.14,-27.23 -1228.52,-1142.76 -1695.37,-485.47 -191.01,268.93 -331.06,641.57 -276.57,1057.38z"/>
   <path class="fil2" d="M6163.97 2352.03c-18.46,-181.45 -483.07,-415.28 -133.17,-843.67 323.8,-396.41 723.59,64.18 872.65,60.05 113.72,-459.9 -505.83,-1795.11 -1438.81,-626.07 -379.4,475.39 -676.33,1339.94 50.15,1500.41 221.56,48.94 530.05,49.52 649.19,-90.71z"/>
   <path class="fil3" d="M6109.09 9896.73c-51.53,-321.7 -189.57,-680.36 -193.16,-1009.55 -600.5,233.53 -1310.46,102.19 -1965.26,139.61 43.37,105.17 108.34,202.1 177.06,296.9 57.5,-60.16 69.66,-92.78 174.1,-100.93 142.43,188.85 -21.01,393.89 46.85,678.08 429.16,56.9 1391.53,119.97 1760.42,-4.1z"/>
   <path class="fil4" d="M3158.89 11011.64c197.8,-221.67 323.17,-137.17 444.34,-461.09 -143.1,-69.55 -390.11,-75.47 -569.85,-92.08 -213.93,-19.79 -448.58,12.08 -437.66,-206.01 180.67,-47.55 459.81,11.92 629.19,34.97 101.6,13.82 225.94,33.37 314.99,41.2 186.68,16.42 183.92,24.72 204.87,-129.94 -8.04,-4.93 -21.24,-19.26 -26.03,-11.14 -4.88,8.29 -20.09,-8.44 -27.05,-10.08l-882.49 -104.32c-175.53,-24.36 -181.88,0.77 -195.78,-165.66 188.29,-107.03 924.09,58.89 1167.02,87.66l-81.91 -182.19c-233.14,-55.62 -994.83,-29.38 -1037.5,-189.7 -64.24,-241.34 645.34,-15.89 1113.35,-16.47l-104.62 -506.06c-1251.33,-767.59 -1986.43,1865.55 -510.87,1910.92z"/>
   <path class="fil2" d="M7582.58 2633.52c282.25,-740.8 -867.2,-1135.01 -1126.02,-387.45 -268.87,776.58 833.82,1154.37 1126.02,387.45z"/>
   <path class="fil2" d="M8143.71 3759.12c87.02,-189.86 330.89,-200.57 460.38,-664.98 35.86,-128.6 41.81,-332.92 13.36,-476.88 -41.68,-210.94 -105.05,-213.75 -208.6,-344.7 -44,-16.55 -386.26,-77.79 -492.07,31.57 -252.04,233.86 425.8,394.38 150.22,850.41 -75.36,124.7 -229.92,214.41 -439.17,171.91 -261.5,-53.11 -113.23,-133.46 -434.3,-25.84 -22.07,440.5 593.7,757.59 950.19,458.5z"/>
   <path class="fil1" d="M1242.74 6645c117.64,101.77 310.75,254.73 448.04,293.6 203.62,-107.2 374.96,-390.56 542.56,-602.18 128.63,-162.39 272.13,-683.11 -46.46,-703.77 -274.82,-17.82 -39.59,148.75 -431.94,113.56 -197.61,-17.72 -291.39,27.18 -409.03,125.95 -316.59,265.81 -231.39,671.68 -103.17,772.83z"/>
   <path class="fil1" d="M7475.91 7850.98c96.03,-181.7 -16.54,-369.38 -239.06,-329.91 -340.57,60.43 -487.15,251.87 -747.23,532.78 -476.94,515.12 273.61,977.46 731.95,659.8 97.99,-67.92 218.69,-230.42 243.7,-390.72 46.43,-297.58 -127.88,-209.83 10.65,-471.96z"/>
   <path class="fil5" d="M3158.89 11011.64c880.81,-121.1 1128.98,-1540.7 510.87,-1910.92l104.62 506.06c-468.01,0.58 -1177.59,-224.87 -1113.35,16.47 42.67,160.32 804.36,134.08 1037.5,189.7l81.91 182.19c-242.93,-28.77 -978.73,-194.69 -1167.02,-87.66 13.9,166.43 20.25,141.3 195.78,165.66l882.49 104.32c6.96,1.65 22.17,18.37 27.05,10.08 4.79,-8.12 17.99,6.21 26.03,11.14 -20.96,154.66 -18.19,146.35 -204.87,129.94 -89.05,-7.83 -213.39,-27.38 -314.99,-41.2 -169.38,-23.05 -448.52,-82.52 -629.19,-34.97 -10.92,218.09 223.73,186.22 437.66,206.01 179.74,16.62 426.75,22.54 569.85,92.08 -121.17,323.92 -246.53,239.42 -444.34,461.09z"/>
   <path class="fil1" d="M7977.34 1971.32l310.37 -34.64c18.5,-256.61 122.09,-548.87 32.13,-784.37 -175.81,-171.73 -845.02,-7.99 -1103.86,28.43 -33.39,113.27 -37.89,364.95 147.99,471.1 246.25,140.61 250.08,117.09 388.85,309.92l224.52 9.57z"/>
   <path class="fil6" d="M4866.44 2280.8c-13.95,98.08 30.58,25 -34.19,78.85 -551.14,-56.12 -1046.2,-128.26 -1620.22,-144.82 -250.17,-7.22 -1599.38,57.09 -1678.56,5.39 -72.57,77.28 -75.38,100.23 -101.64,222.64 1096.81,-31.79 1770.6,-67.35 2857.61,62.43 264.2,31.54 618.45,110.43 852.33,113 -6.41,-15.03 -244.04,-304.95 -275.33,-337.49z"/>
   <path class="fil1" d="M1618.04 2045.18l-84.57 175.04c79.18,51.7 1428.4,-12.61 1678.56,-5.39 574.02,16.57 1069.08,88.71 1620.22,144.82 64.77,-53.85 20.24,19.23 34.19,-78.85l-29.2 -105.09c-628.39,-196.67 -2472.54,-186.75 -3219.2,-130.52z"/>
   <path class="fil1" d="M6006.23 10493.73c58.63,-120.97 48.42,-173.88 27.57,-340.59 -698.18,90.73 -1051.72,10.02 -1711.12,-17.94l33.65 360.89c608.46,126.52 1087.66,-9.37 1649.9,-2.36z"/>
   <path class="fil2" d="M2026.52 6986.69l-31.53 157.72c246.75,69.1 337.25,232.79 671.95,198.14 175.89,-359.03 434.84,-831.92 -89.17,-1047.82l-551.25 691.96z"/>
   <path class="fil6" d="M1618.04 2045.18c746.65,-56.23 2590.81,-66.14 3219.2,130.52l-44.62 -170.88c-1114.74,-130.03 -1349.81,-161.01 -2461.44,-144.68 -272.63,4 -631.91,-73.34 -713.13,185.04z"/>
   <path class="fil0" d="M2698.48 3947.94c-359.9,150.95 -344.75,973.3 179.06,782.69 366.93,-133.52 314.11,-989.54 -179.06,-782.69z"/>
   <path class="fil2 str0" d="M5042.17 7383.56c141.63,-84.94 545.77,-227.2 688.98,-192.42 94.83,210.57 218.5,1069.26 238.86,1353.77l-37.4 42.4c-5.15,5.78 -15.92,17.72 -20.66,23.04l-44.96 49.88c373.98,-39.41 296.21,-70.56 188.53,-700.3 -170.81,-999.04 26.4,-869.15 -879.07,-864.14l-134.28 287.79z"/>
   <path class="fil0" d="M4405.77 5196.98c175.98,-112.77 522.59,-50.75 447.67,238.92 -112.87,63.03 -180.67,70.38 -317.39,25.18 -141.51,-46.78 -148.45,-97.38 -130.29,-264.11zm-7.4 -189.15c-500.98,203 -15.74,801.18 476.24,617.97 480.15,-178.81 47,-829.98 -476.24,-617.97z"/>
   <path class="fil7" d="M8143.71 3759.12c293.55,-89.85 601.35,-404.92 722.21,-687.53 177,-413.89 -81.13,-743.07 -457.07,-799.03 103.55,130.95 166.92,133.76 208.6,344.7 28.45,143.95 22.5,348.28 -13.36,476.88 -129.5,464.41 -373.36,475.12 -460.38,664.98z"/>
   <path class="fil0" d="M7016.28 5260.07c356.68,-276.35 -443.79,-717.19 -772.72,-406.37 -58.09,54.9 -143.07,190.56 -19.91,259.72 110.77,62.21 189.25,-74.11 282.42,-102.69 301.82,-92.56 283.92,222 510.21,249.34z"/>
   <path class="fil8" d="M5466.15 11118.99l0 18.79 127.67 60.1 19.76 91.13 -18.89 80.21 92.9 73.58 110.16 23.16c21.21,-142.88 36.64,-259.47 86.01,-387.94 55.3,-143.87 122.24,-177.46 158.32,-331.44l-238.37 -0.41c-195.3,44.52 -50.69,76.94 -190.94,165.61 -88.39,55.87 -159.55,24.52 -243.23,5.16 47.04,145.8 81.93,18.78 96.62,202.05z"/>
   <path class="fil9" d="M4798.4 11491.02c-7.47,5.27 -18.25,10.75 -23.79,13.63l-134.04 66.32c2.51,2.78 63.18,80.69 80.91,99.23 223.9,105 680.7,74.86 885.9,-12.93 5.39,-11.14 10.53,-29.18 12.87,-34.84l32 -62.32c-115.94,-17.45 -84.43,19.73 -106.1,-49.82 -251.9,-78.79 -491.35,-77.68 -747.74,-19.28z"/>
   <path class="fil10" d="M3941.84 7118.11c-58.72,-179.6 -10.71,-33.48 9.76,-92.24 137.77,60.31 220.76,109.45 377.35,157.57 88.28,27.14 347.95,54.51 397.81,125.81 131.14,-54.06 191.68,-80.7 207.89,-237.73l-1091.21 -191.49c15.13,142.79 6.92,167.48 98.41,238.08z"/>
   <path class="fil1" d="M5915.93 8887.18c3.59,329.19 141.63,687.85 193.16,1009.55l110.78 -17.25c71.94,-84.77 -74.26,-19.81 79.05,-70.86l-216.07 -953.49 -166.93 32.06z"/>
   <path class="fil10" d="M8002.82 4146.38l111.67 0.08c1.24,78.94 3.59,170.62 -1.77,249.06 -9.12,133.13 -12.26,145.62 -74.35,222.07l360.74 -34.06c41.57,-185.41 32.46,-417.42 33.82,-628.91 -119.77,33.29 -355.57,121.28 -430.12,191.76z"/>
   <path class="fil2" d="M6218.23 7354c-24.46,125.04 -7.26,163.59 14.48,280.46l79.05 222.79c115.06,-77.87 335.19,-288.47 352.44,-366.86l14.07 -89.77c-138.6,-63.1 -330.31,-199.61 -444.44,-203.03l-15.61 156.41z"/>
   <path class="fil2 str0" d="M2666.93 7342.56c-334.7,34.65 -425.19,-129.05 -671.95,-198.14l31.53 -157.72c-110.29,57.92 -159.54,118.18 -217.53,221.12 87.21,116.99 576.6,344.88 780.4,358.45l77.54 -223.71z"/>
   <path class="fil10" d="M7861.89 5377.67l350.95 -8.38c42.42,-116.01 167.81,-368.94 107.76,-530.91l-317.8 -15.17c67.66,135.17 41.44,160 0.03,307.68l-92.72 197.73c-6.72,8.04 -17.3,17.83 -23.17,24.39 -6.13,6.85 -16.84,16.28 -25.05,24.64z"/>
   <path class="fil8" d="M4472.42 10999.42c35.12,150.94 77.63,342.03 114.56,443.5l73.27 -1.73 -3.95 -48.67 61.46 -208.43 79.45 -30.48 13.22 -41.25c31.2,-96.82 21.27,-54.6 51.99,-110.71l47.12 -73.38c-489.63,18.21 -80.79,-148.43 -512.61,-176.34l75.5 247.49z"/>
   <path class="fil11" d="M5797.74 11465.96l6.46 70.04c241.8,-83.96 360.44,-490.08 367.16,-826.69l-367.66 36.86 238.37 0.41c-36.09,153.98 -103.03,187.57 -158.32,331.44 -49.38,128.47 -64.8,245.06 -86.01,387.94z"/>
   <path class="fil11" d="M6082.86 8855.12l216.07 953.49c-153.31,51.05 -7.11,-13.91 -79.05,70.86l166.17 -37.29c27.94,-219.67 -82.21,-869.26 -181.62,-1024.25l-121.57 37.18z"/>
   <path class="fil10" d="M7977.34 1971.32c162.41,2.37 410.1,40.98 525.92,-3.1 46.08,-146.47 14.91,-500.7 -30.91,-646.95 -42.34,-135.1 -48.84,-126.49 -152.51,-168.96 89.96,235.5 -13.63,527.76 -32.13,784.37l-310.37 34.64z"/>
   <path class="fil10" d="M7430.61 6018.91c222.71,-15.35 302.31,128.29 453.4,-56.18 62.82,-76.7 170.31,-224.85 189.06,-338.33 -64.63,-70.5 -132.84,-118.07 -209.24,-159.69 -25.57,158.3 -163.2,432.34 -242.3,478.05l-190.92 76.16z"/>
   <path class="fil1" d="M3941.84 7118.11c76.76,248.73 613.82,378.65 784.91,191.14 -49.86,-71.3 -309.53,-98.67 -397.81,-125.81 -156.59,-48.13 -239.57,-97.26 -377.35,-157.57 -20.47,58.76 -68.48,-87.36 -9.76,92.24z"/>
   <path class="fil12" d="M4656.29 11392.52l3.95 48.67c18.63,90.08 57.1,55.65 138.15,49.83 256.4,-58.4 495.84,-59.51 747.74,19.28l142.57 6.33 -1.12 -73.82 -92.9 -73.58c-380.66,-56.03 -577.75,-87.05 -938.4,23.3z"/>
   <path class="fil9" d="M4405.77 5196.98c-18.16,166.72 -11.22,217.33 130.29,264.11 136.72,45.2 204.51,37.84 317.39,-25.18 74.92,-289.68 -271.69,-351.69 -447.67,-238.92z"/>
   <path class="fil3" d="M4579.4 11601.76l7.58 -158.84c-36.92,-101.47 -79.44,-292.55 -114.56,-443.5l-91 -106.01c-80.63,-89.74 -12.34,-25.49 -86.41,-65.67 -17.11,392.97 -3.35,631.42 284.39,774.02z"/>
   <path class="fil12" d="M4717.75 11184.09c-5.58,212.67 -14.76,69.27 44.04,123.21 140.71,-19.5 270.07,-59.89 422.9,-49.43 151.84,10.39 256.82,43.84 428.89,31.14l-19.76 -91.13 -127.67 -60.1 -668.95 15.83 -79.45 30.48z"/>
   <path class="fil2 str0" d="M6218.23 7354l15.61 -156.41c114.13,3.41 305.83,139.93 444.44,203.03l-14.07 89.77c94.58,-44.58 56.65,-13.78 130.63,-75.24 -17.4,-185.62 -385.61,-378.98 -615.87,-312.9 -63.93,286.34 25.48,235.33 39.26,251.75z"/>
   <path class="fil2" d="M6241.3 2003.2c120.91,-47.17 84.71,-61.04 166.17,-153.97 68.9,-78.6 121.67,-70.12 136.1,-188.28 -75.04,-48.72 -157.93,-58.13 -280.3,-53.14 -121.73,137.55 -211.85,250.64 -21.97,395.39z"/>
   <path class="fil13" d="M4810.42 11112.36l-13.22 41.25 668.95 -15.83 0 -18.79c-134.75,-20.08 -99.45,2.42 -197.99,-90.94 -56.38,-53.43 -57.42,-67.46 -118.87,-114.78 -99.08,68.58 -155.02,202.4 -338.86,199.09z"/>
   <path class="fil7" d="M7623.55 3118c222.19,54.87 372.91,-85.48 247.86,-273.35 -103.23,-42.39 -70.74,-47.43 -171.23,85.93 -71.67,95.14 -77.04,71.28 -76.63,187.42z"/>
   <path class="fil10" d="M7043.78 6590.9c115,-30.11 213.57,-90.46 304.51,-142.14 104.07,-59.15 151.83,-80.49 201.26,-200.44l-118.22 -73.56c-140.3,243.15 -298.71,256.51 -387.55,416.14z"/>
   <path class="fil13" d="M4656.29 11392.52c360.65,-110.35 557.74,-79.32 938.4,-23.3l18.89 -80.21c-172.07,12.7 -277.05,-20.75 -428.89,-31.14 -152.83,-10.46 -282.19,29.93 -422.9,49.43 -58.8,-53.94 -49.63,89.47 -44.04,-123.21l-61.46 208.43z"/>
   <path class="fil10" d="M6006.23 10493.73c257.78,-36.6 186.13,-105.84 213.96,-379.26l-186.39 38.67c20.85,166.71 31.06,219.62 -27.57,340.59z"/>
   <path class="fil10" d="M1690.78 6938.6c-137.29,-38.87 -330.4,-191.83 -448.04,-293.6 53.98,164.68 208.22,374.12 383.91,393.47 68.52,-62.19 39.42,-41.54 64.13,-99.87z"/>
   <path class="fil14" d="M5546.14 11510.3c21.67,69.55 -9.84,32.36 106.1,49.82l-32 62.32c-2.34,5.66 -7.48,23.69 -12.87,34.84 112.15,-42.46 141.28,-47.13 196.84,-121.27l-6.46 -70.04 -110.16 -23.16 1.12 73.82 -142.57 -6.33z"/>
   <path class="fil11" d="M2541.17 9009.21c123.44,-36.76 139.05,-57.29 225.43,-147.62 -105.53,-59.1 -56.85,-41.98 -197.34,-38.79l-28.1 186.41z"/>
   <path class="fil13" d="M5899.97 2739.09c90.51,55.12 219.09,78.32 329.14,54.84l-95.56 -116.79 -233.58 61.95z"/>
   <path class="fil13" d="M4725.45 10761.68c73.7,121.62 192.24,57.38 247.08,-30.18 -37.49,-6.82 -106.4,-23.93 -141.66,-21.26 -166.61,12.64 -68.44,19.96 -105.42,51.44z"/>
   <path class="fil13" d="M5355.64 10761.68c73.85,57.15 131.29,121.31 227.21,0 -63.94,-49 100.95,-47.63 -116.16,-50.1 -137.6,-1.56 -105.82,46.41 -111.05,50.1z"/>
   <path class="fil14" d="M4579.4 11601.76l142.08 68.44c-17.73,-18.54 -78.4,-96.46 -80.91,-99.23l134.04 -66.32c5.54,-2.88 16.33,-8.36 23.79,-13.63 -81.05,5.82 -119.52,40.25 -138.15,-49.83l-73.27 1.73 -7.58 158.84z"/>
   <path class="fil4" d="M4295 10827.74c74.07,40.18 5.78,-24.06 86.41,65.67l91 106.01 -75.5 -247.49 -100.66 1.77 -1.26 74.04z"/>
  </g>
 </g>
</svg>
